:SAMPLES-PER-SECOND 30
:FULLY-SPECIFIED
:DEGREES
703
root  44.4308 38.2116 -5.11954 179.508 24.5836 178.18
RightUpLeg  -13.3551 -43.2719 4.81632
RightLeg  26.0079 -16.8321 -9.53454
RightFoot  -17.8793 -0.205129 -1.48503
RightToes  -2.32831e-009 0 -3.6325e-017
Spine  9.8853 3.93455 7.22475
Spine1  0.449197 6.1369 -7.55199
HEad  -61.3034 -36.696 -48.9747
LeftShoulder1  -0.90315 5.85192 -32.2897
LeftArm  -0.344351 13.022 -39.0685
LeftForeArm  36.7655 -51.6466 -11.2754
LeftHand  -0.0763386 7.7084 -1.57357
RightShoulder  -1.07569 -6.35485 31.1802
RightArm  21.7052 -7.06012 41.6195
RightForeArm  22.1646 47.7143 10.7048
RightHand  -0.221009 9.96656 -2.07116
LeftUpLeg  1.37818 13.8248 5.06405
LeftLeg  25.7862 3.1256 1.97463
LeftFoot  -16.6062 -0.385956 -11.0624
LeftToes  8.91272e-011 -1.70619e-011 7.36378e-012
704
root  44.466 37.8729 -4.6875 179.583 18.8472 176.986
RightUpLeg  -17.7988 -39.3966 3.90961
RightLeg  32.8775 -17.7831 -12.1726
RightFoot  -17.3471 -0.214138 -1.84577
RightToes  -2.32831e-009 0 -3.6325e-017
Spine  10.0408 3.729 2.91858
Spine1  -0.834057 5.27089 -6.90021
HEad  -56.2118 -35.2826 -50.3242
LeftShoulder1  -0.898082 5.85721 -31.9939
LeftArm  -2.07722 14.0312 -37.9542
LeftForeArm  35.3099 -52.451 -11.7595
LeftHand  -0.0629626 7.54471 -1.09108
RightShoulder  -1.04384 -6.28282 31.0048
RightArm  21.253 -8.68216 41.353
RightForeArm  22.3838 44.4666 9.43849
RightHand  -0.412701 9.82835 -3.54495
LeftUpLeg  1.22614 12.3366 4.26894
LeftLeg  22.4673 0.410637 0.500658
LeftFoot  -19.9506 -0.418112 -7.06032
LeftToes  8.91272e-011 -1.70619e-011 7.36378e-012
705
root  44.5629 37.4882 -4.2125 178.98 12.7566 175.999
RightUpLeg  -20.2019 -33.0909 0.656836
RightLeg  38.9319 -12.1038 -10.4735
RightFoot  -16.7935 -0.158945 -0.914449
RightToes  -2.32831e-009 0 -3.6325e-017
Spine  11.431 3.50784 -0.525198
Spine1  -0.994203 4.64818 -5.96242
HEad  -51.7383 -35.8503 -51.0785
LeftShoulder1  -0.996751 6.06044 -32.7909
LeftArm  -2.02451 11.6927 -35.6863
LeftForeArm  32.0395 -51.0047 -11.3684
LeftHand  -0.0631467 7.81865 -0.90934
RightShoulder  -1.13595 -6.50006 31.3623
RightArm  18.4652 -10.4778 40.9302
RightForeArm  22.8286 41.7947 8.50244
RightHand  -0.409853 10.3594 -3.41907
LeftUpLeg  -1.22459 8.69933 3.47459
LeftLeg  25.1931 -1.44884 -0.438104
LeftFoot  -22.0914 -0.406758 -5.696
LeftToes  8.91272e-011 -1.70619e-011 7.36378e-012
706
root  44.7764 37.1873 -3.84682 177.96 7.56375 175.917
RightUpLeg  -20.7152 -25.9834 -2.62453
RightLeg  42.5017 -3.93834 -4.20489
RightFoot  -16.159 -0.0342805 1.67864
RightToes  -2.32831e-009 0 -3.6325e-017
Spine  12.7192 3.76836 -1.8792
Spine1  0.335384 4.88673 -5.77266
HEad  -46.9932 -36.7774 -52.1533
LeftShoulder1  -1.08301 6.2093 -33.834
LeftArm  -3.21203 7.93568 -34.4322
LeftForeArm  30.0023 -47.1042 -9.89123
LeftHand  -0.0301152 7.96976 0.574694
RightShoulder  -1.26641 -6.80347 31.8652
RightArm  15.9534 -11.5812 40.9401
RightForeArm  19.6047 37.6322 7.45344
RightHand  -0.544224 11.0996 -4.23849
LeftUpLeg  -3.36875 6.3365 4.26256
LeftLeg  29.2138 -4.47999 -2.34375
LeftFoot  -22.7514 -0.413755 -5.50279
LeftToes  8.91272e-011 -1.70619e-011 7.36378e-012
707
root  45.0826 37.1248 -3.71799 177.41 4.12126 176.835
RightUpLeg  -20.2308 -18.8583 -4.44956
RightLeg  43.1769 1.47438 1.15978
RightFoot  -16.3354 0.130846 5.57397
RightToes  -2.32831e-009 0 -3.6325e-017
Spine  13.0626 4.03141 -0.506707
Spine1  1.02388 5.72656 -8.38131
HEad  -41.9371 -35.795 -53.0806
LeftShoulder1  -1.04768 6.19367 -32.7908
LeftArm  -7.21326 7.83265 -35.1027
LeftForeArm  30.5932 -43.2883 -8.46143
LeftHand  0.00208083 8.12146 1.83502
RightShoulder  -1.2313 -6.72048 31.7532
RightArm  16.3472 -12.6667 42.0268
RightForeArm  14.1752 31.7886 6.18897
RightHand  -0.658042 10.8308 -5.10583
LeftUpLeg  -3.90575 4.64482 5.94851
LeftLeg  30.2459 -6.19692 -3.53104
LeftFoot  -22.8769 -0.412447 -5.43667
LeftToes  8.91272e-011 -1.70619e-011 7.36378e-012
708
root  45.4354 37.3007 -3.70394 176.96 0.593842 177.808
RightUpLeg  -19.3887 -15.948 -6.06353
RightLeg  42.6411 0.306936 0.0240822
RightFoot  -15.3478 0.0957365 5.68554
RightToes  -2.32831e-009 0 -3.6325e-017
Spine  13.4583 3.86933 -0.354024
Spine1  0.46162 5.56586 -8.80956
HEad  -37.6789 -32.8597 -53.8209
LeftShoulder1  -1.18238 6.59644 -32.0382
LeftArm  -11.765 10.7964 -34.8473
LeftForeArm  31.4296 -41.5802 -7.86496
LeftHand  0.0496541 8.78643 3.15337
RightShoulder  -1.1836 -6.59501 31.752
RightArm  19.7191 -13.3129 41.9399
RightForeArm  11.6162 27.6528 5.33659
RightHand  -0.570186 10.2742 -4.62125
LeftUpLeg  -3.45054 3.04541 7.73578
LeftLeg  28.8847 -8.32373 -4.59415
LeftFoot  -21.9369 -0.387612 -5.60175
LeftToes  8.91272e-011 -1.70619e-011 7.36378e-012
709
root  45.7961 37.5367 -3.78226 177.442 -3.08228 178.591
RightUpLeg  -19.0465 -15.167 -7.96064
RightLeg  41.017 -2.09558 -2.23346
RightFoot  -14.3901 0.0372947 5.03453
RightToes  -2.32831e-009 0 -3.6325e-017
Spine  12.639 3.68926 -0.363637
Spine1  0.294575 5.29651 -8.27772
HEad  -33.8803 -30.4421 -54.1359
LeftShoulder1  -1.23326 6.73568 -31.9612
LeftArm  -14.2317 13.6682 -33.0606
LeftForeArm  30.9482 -40.0348 -7.43084
LeftHand  0.0656705 9.26648 3.28613
RightShoulder  -1.2662 -6.79495 31.9523
RightArm  19.9119 -14.5632 41.2273
RightForeArm  14 25.9276 4.82008
RightHand  -0.539885 10.2634 -4.39895
LeftUpLeg  -3.73185 1.16311 9.14828
LeftLeg  26.7337 -10.3096 -5.25998
LeftFoot  -20.6004 -0.383986 -6.26482
LeftToes  8.91272e-011 -1.70619e-011 7.36378e-012
